#!OML:ASF X:\für Bonn\!DataBase\2005_08_10_Bjorn_Final\c3d\bjorn.ASF
:FULLY-SPECIFIED
:DEGREES
402
root 17.3738 19.1592 -1.6094 -54.9637 -84.0724 -297.217
lowerback -1.6516 0.0170453 -1.28868
upperback -0.289462 0.0125678 -3.86722
thorax 0.629616 -0.0189118 -3.25
lowerneck 4.24107 -0.522872 5.63476
upperneck 12.473 -0.352383 -6.76813
head 3.31854 -0.276796 -3.28686
rclavicle 3.18055e-015 2.78299e-015
rhumerus -31.4129 7.61078 -89.1887
rradius 38.4593
rwrist -0.731029
rhand -9.88639 14.6467
rfingers 7.12502
rthumb 16.093 -14.7051
lclavicle 3.18055e-015 2.78299e-015
lhumerus -37.2793 -18.517 87.0022
lradius 38.3762
lwrist -22.7463
lhand -21.9067 -11.5546
lfingers 7.12502
lthumb 4.49888 18.3776
rfemur -2.09022 -4.12431 13.0287
rtibia 21.1657
rfoot -18.8806 19.9133
rtoes 4.83486
lfemur -15.172 7.9017 -15.8361
ltibia 49.8275
lfoot -5.56493 16.2586
ltoes -22.1882
403
root 17.33 19.1543 -1.60889 -56.3275 -84.1137 -296.004
lowerback -1.63833 0.051894 -1.27166
upperback -0.348702 0.0564718 -3.83315
thorax 0.563451 0.00296862 -3.2232
lowerneck 4.31002 -0.478425 5.68386
upperneck 12.8087 -0.266838 -7.07546
head 3.43326 -0.248819 -3.41245
rclavicle 1.98785e-015 2.78299e-015
rhumerus -31.1032 7.15365 -89.2222
rradius 38.2561
rwrist -0.721161
rhand -10.05 14.8136
rfingers 7.12502
rthumb 15.9355 -14.5508
lclavicle 1.98785e-015 2.78299e-015
lhumerus -36.8072 -17.9922 87.0175
lradius 37.6442
lwrist -23.2022
lhand -21.8782 -11.8163
lfingers 7.12502
lthumb 4.52635 18.1154
rfemur -1.75547 -3.67851 13.0361
rtibia 21.1139
rfoot -19.0101 19.5624
rtoes 4.31598
lfemur -15.6002 7.95249 -15.9238
ltibia 50.707
lfoot -5.66224 15.0006
ltoes -21.1654
404
root 17.2879 19.1472 -1.60659 -57.5416 -84.1885 -294.955
lowerback -1.61291 0.0926242 -1.21235
upperback -0.390187 0.108266 -3.79608
thorax 0.509135 0.0291445 -3.21708
lowerneck 4.33646 -0.436042 5.80153
upperneck 13.4426 -0.131758 -7.65167
head 3.26002 -0.2278 -3.30926
rclavicle 6.4605e-015 4.37326e-015
rhumerus -30.7529 6.71239 -89.2763
rradius 37.9563
rwrist -0.644229
rhand -10.2578 14.9753
rfingers 7.12502
rthumb 15.7354 -14.405
lclavicle 6.4605e-015 4.37326e-015
lhumerus -36.3311 -17.5205 87.0291
lradius 36.9343
lwrist -23.5644
lhand -21.8107 -12.1303
lfingers 7.12502
lthumb 4.59153 17.7999
rfemur -1.455 -3.23623 13.0781
rtibia 21.1378
rfoot -19.087 19.2619
rtoes 3.98308
lfemur -16.0192 8.00716 -15.9791
ltibia 51.5271
lfoot -5.90492 13.4738
ltoes -19.6074
405
root 17.2457 19.1414 -1.60382 -58.5485 -84.2508 -294.112
lowerback -1.59811 0.12957 -1.14389
upperback -0.404426 0.156681 -3.75381
thorax 0.488619 0.0539723 -3.2109
lowerneck 4.36891 -0.392663 5.87694
upperneck 13.7689 -0.0413278 -7.97282
head 3.35554 -0.200133 -3.42472
rclavicle 2.03754e-015 -1.43125e-014
rhumerus -30.3457 6.29623 -89.343
rradius 37.6397
rwrist -0.623175
rhand -10.4839 15.0665
rfingers 7.12502
rthumb 15.5176 -14.3308
lclavicle 2.03754e-015 -1.43125e-014
lhumerus -35.8597 -17.0873 87.0656
lradius 36.2689
lwrist -23.9151
lhand -21.7964 -12.4132
lfingers 7.12502
lthumb 4.60536 17.5168
rfemur -1.19377 -2.92412 13.1097
rtibia 21.2238
rfoot -19.1432 19.0834
rtoes 3.55547
lfemur -16.4665 8.04453 -16.0307
ltibia 52.2789
lfoot -6.18497 11.929
ltoes -17.9796
406
root 17.2042 19.1342 -1.60013 -59.8755 -84.3051 -292.959
lowerback -1.56991 0.167954 -1.08889
upperback -0.407838 0.207008 -3.7206
thorax 0.471806 0.0796797 -3.20653
lowerneck 4.40708 -0.324755 5.91397
upperneck 14.0792 0.0757869 -8.2224
head 3.4484 -0.158545 -3.51134
rclavicle 4.96962e-017 -7.95139e-015
rhumerus -29.9684 5.95871 -89.4624
rradius 37.3481
rwrist -0.666722
rhand -10.8604 15.1689
rfingers 7.12502
rthumb 15.1549 -14.2562
lclavicle 4.96962e-017 -7.95139e-015
lhumerus -35.4084 -16.6889 87.1019
lradius 35.5985
lwrist -24.2224
lhand -21.8019 -12.7143
lfingers 7.12502
lthumb 4.60008 17.2157
rfemur -0.953132 -2.52913 13.1263
rtibia 21.3677
rfoot -19.1738 18.8641
rtoes 3.22854
lfemur -16.907 8.11311 -16.121
ltibia 52.9427
lfoot -6.44379 10.336
ltoes -16.7112
407
root 17.1626 19.1266 -1.59643 -61.1098 -84.3731 -291.895
lowerback -1.54814 0.2177 -1.02613
upperback -0.393055 0.273481 -3.68786
thorax 0.478119 0.113708 -3.20673
lowerneck 4.49357 -0.263248 5.93644
upperneck 14.3043 0.176021 -8.37584
head 3.50779 -0.119657 -3.5647
rclavicle 9.93923e-016 -1.39149e-014
rhumerus -29.6037 5.65909 -89.6116
rradius 37.0878
rwrist -0.779568
rhand -11.3025 15.2254
rfingers 7.12502
rthumb 14.7291 -14.2313
lclavicle 9.93923e-016 -1.39149e-014
lhumerus -34.9724 -16.367 87.1683
lradius 35.0097
lwrist -24.374
lhand -21.7416 -13.0208
lfingers 7.12502
lthumb 4.6583 16.908
rfemur -0.735164 -2.18007 13.1604
rtibia 21.5392
rfoot -19.1767 18.6703
rtoes 2.86109
lfemur -17.3616 8.20357 -16.1987
ltibia 53.513
lfoot -6.84167 8.59152
ltoes -15.9372
408
root 17.1199 19.1211 -1.59202 -62.3858 -84.414 -290.788
lowerback -1.54548 0.255122 -0.989654
upperback -0.349349 0.325769 -3.64441
thorax 0.523966 0.140983 -3.18124
lowerneck 4.64653 -0.209177 5.82993
upperneck 14.4251 0.260226 -8.48735
head 3.52429 -0.0906101 -3.58191
rclavicle -1.49089e-015 2.70347e-014
rhumerus -29.1874 5.38962 -89.7422
rradius 36.8445
rwrist -0.924098
rhand -11.7899 15.3661
rfingers 7.12502
rthumb 14.2595 -14.1244
lclavicle -1.49089e-015 2.70347e-014
lhumerus -34.5421 -16.1012 87.2568
lradius 34.4646
lwrist -24.5069
lhand -21.6872 -13.2619
lfingers 7.12502
lthumb 4.71078 16.6658
rfemur -0.521679 -1.83027 13.1646
rtibia 21.7322
rfoot -19.1298 18.5035
rtoes 2.51312
lfemur -17.8242 8.29056 -16.3153
ltibia 53.9755
lfoot -7.29818 6.86995
ltoes -15.7251
409
root 17.0755 19.1173 -1.58748 -63.6926 -84.5021 -289.642
lowerback -1.55622 0.303984 -0.91314
upperback -0.29058 0.394001 -3.59404
thorax 0.593759 0.176675 -3.17074
lowerneck 4.80962 -0.164216 5.77579
upperneck 14.4873 0.336179 -8.63532
head 3.52063 -0.062719 -3.61861
rclavicle -7.92654e-015 3.37934e-014
rhumerus -28.7192 5.0501 -89.874
rradius 36.6217
rwrist -1.08006
rhand -12.1648 15.4213
rfingers 7.12502
rthumb 13.8981 -14.0943
lclavicle -7.92654e-015 3.37934e-014
lhumerus -34.1118 -15.8519 87.3323
lradius 33.9555
lwrist -24.7751
lhand -21.665 -13.5156
lfingers 7.12502
lthumb 4.73222 16.4115
rfemur -0.319151 -1.4746 13.2183
rtibia 21.9211
rfoot -19.0716 18.3428
rtoes 2.0299
lfemur -18.2803 8.45226 -16.3849
ltibia 54.3361
lfoot -7.63801 5.25157
ltoes -15.8443
410
root 17.0293 19.1167 -1.58151 -65.1294 -84.5638 -288.363
lowerback -1.56576 0.361783 -0.832163
upperback -0.22983 0.47348 -3.57241
thorax 0.66579 0.217806 -3.19218
lowerneck 4.97506 -0.128682 5.70696
upperneck 14.5583 0.391271 -8.70321
head 3.5185 -0.0426472 -3.62838
rclavicle 9.29318e-015 -2.62396e-014
rhumerus -28.2743 4.72954 -90.0439
rradius 36.4503
rwrist -1.3495
rhand -12.4846 15.4048
rfingers 7.12502
rthumb 13.59 -14.1316
lclavicle 9.29318e-015 -2.62396e-014
lhumerus -33.7346 -15.6795 87.4013
lradius 33.5136
lwrist -25.1425
lhand -21.5971 -13.655
lfingers 7.12502
lthumb 4.79779 16.2706
rfemur -0.113214 -1.14162 13.2364
rtibia 22.0924
rfoot -18.916 18.2088
rtoes 1.69215
lfemur -18.7218 8.58896 -16.5035
ltibia 54.5935
lfoot -7.8749 3.87632
ltoes -16.2015
411
root 16.9808 19.1192 -1.57592 -66.7253 -84.6515 -286.893
lowerback -1.57666 0.429076 -0.743876
upperback -0.195499 0.564747 -3.53344
thorax 0.71214 0.264799 -3.19949
lowerneck 5.07529 -0.0891886 5.63487
upperneck 14.717 0.455364 -8.81156
head 3.55366 -0.0234016 -3.65156
rclavicle -3.2551e-015 -1.59028e-014
rhumerus -27.8699 4.46651 -90.2025
rradius 36.2481
rwrist -1.59444
rhand -12.8637 15.4185
rfingers 7.12502
rthumb 13.2246 -14.142
lclavicle -3.2551e-015 -1.59028e-014
lhumerus -33.433 -15.6166 87.5367
lradius 33.1349
lwrist -25.3867
lhand -21.5002 -13.7485
lfingers 7.12502
lthumb 4.8914 16.1751
rfemur 0.0782932 -0.857207 13.2623
rtibia 22.2296
rfoot -18.6981 18.139
rtoes 1.39783
lfemur -19.1803 8.75744 -16.6038
ltibia 54.7582
lfoot -8.1186 2.757
ltoes -16.5824
412
root 16.9301 19.1251 -1.57048 -67.9614 -84.7398 -285.782
lowerback -1.57463 0.486097 -0.635581
upperback -0.159064 0.641512 -3.50377
thorax 0.753129 0.304585 -3.22804
lowerneck 5.14125 -0.045746 5.61057
upperneck 14.8972 0.525711 -8.91801
head 3.60154 0.000455789 -3.68257
rclavicle -7.25564e-015 3.69739e-014
rhumerus -27.4681 4.15515 -90.374
rradius 36.0182
rwrist -1.67052
rhand -13.1803 15.4049
rfingers 7.12502
rthumb 12.9194 -14.1752
lclavicle -7.25564e-015 3.69739e-014
lhumerus -33.1471 -15.6607 87.6554
lradius 32.8087
lwrist -25.6121
lhand -21.2451 -13.7849
lfingers 7.12502
lthumb 5.13768 16.1328
rfemur 0.284714 -0.621454 13.3083
rtibia 22.3349
rfoot -18.451 18.0874
rtoes 0.990113
lfemur -19.6245 8.93792 -16.6824
ltibia 54.8336
lfoot -8.33904 1.87771
ltoes -17.1912
